<svg xmlns="http://www.w3.org/2000/svg" viewBox="0 0 64 64" fill="none">
  <rect width="64" height="64" rx="14" fill="#05070A"/>
  <rect x="1" y="1" width="62" height="62" rx="13" stroke="url(#g)" stroke-opacity="0.6" stroke-width="1.5"/>
  <!-- Axis cross -->
  <line x1="12" y1="32" x2="52" y2="32" stroke="#00E5FF" stroke-width="2" stroke-linecap="round"/>
  <line x1="32" y1="12" x2="32" y2="52" stroke="#00E5FF" stroke-width="2" stroke-linecap="round"/>
  <!-- X diagonal forming FAXIS X -->
  <line x1="18" y1="18" x2="46" y2="46" stroke="#00E5FF" stroke-width="2.5" stroke-linecap="round"/>
  <line x1="46" y1="18" x2="18" y2="46" stroke="#00E5FF" stroke-width="2.5" stroke-linecap="round"/>
  <!-- Center node -->
  <circle cx="32" cy="32" r="5" fill="#05070A" stroke="#00E5FF" stroke-width="2"/>
  <circle cx="32" cy="32" r="2" fill="#00E5FF"/>
  <!-- Corner tick marks -->
  <path d="M14 14 L20 14 M14 14 L14 20" stroke="#00E5FF" stroke-width="1.5" stroke-linecap="round" opacity="0.7"/>
  <path d="M50 14 L44 14 M50 14 L50 20" stroke="#00E5FF" stroke-width="1.5" stroke-linecap="round" opacity="0.7"/>
  <path d="M14 50 L20 50 M14 50 L14 44" stroke="#00E5FF" stroke-width="1.5" stroke-linecap="round" opacity="0.7"/>
  <path d="M50 50 L44 50 M50 50 L50 44" stroke="#00E5FF" stroke-width="1.5" stroke-linecap="round" opacity="0.7"/>
  <defs>
    <linearGradient id="g" x1="0" y1="0" x2="64" y2="64">
      <stop offset="0" stop-color="#00E5FF"/>
      <stop offset="1" stop-color="#7B61FF"/>
    </linearGradient>
  </defs>
</svg>
